<svg width="180" height="180" viewBox="0 0 180 180" fill="none" xmlns="http://www.w3.org/2000/svg" role="img" aria-labelledby="title">
  <title id="title">AuthToolkit apple touch icon</title>
  <rect width="180" height="180" rx="42" fill="#F0FAEA"/>
  <path d="M90 28L140 47V88C140 122.8 118.5 148.6 90 159C61.5 148.6 40 122.8 40 88V47L90 28Z" fill="#041B4D"/>
  <path d="M90 61C75.7 61 64 72.7 64 87C64 98.4 71.4 108.2 81.7 111.7V132H98.3V111.7C108.6 108.2 116 98.4 116 87C116 72.7 104.3 61 90 61ZM90 78C95 78 99 82 99 87C99 92 95 96 90 96C85 96 81 92 81 87C81 82 85 78 90 78Z" fill="#7ED321"/>
</svg>
