<svg width="64" height="64" viewBox="0 0 64 64" fill="none" xmlns="http://www.w3.org/2000/svg" role="img" aria-labelledby="title">
  <title id="title">AuthToolkit favicon</title>
  <path d="M32 6L52 14V30.5C52 44.4 43.4 54.7 32 59C20.6 54.7 12 44.4 12 30.5V14L32 6Z" fill="#041B4D"/>
  <path d="M32 19C26.5 19 22 23.5 22 29C22 33.2 24.7 36.9 28.5 38.2V47H35.5V38.2C39.3 36.9 42 33.2 42 29C42 23.5 37.5 19 32 19ZM32 26C33.7 26 35 27.3 35 29C35 30.7 33.7 32 32 32C30.3 32 29 30.7 29 29C29 27.3 30.3 26 32 26Z" fill="#7ED321"/>
</svg>
