<svg width="1200" height="630" viewBox="0 0 1200 630" fill="none" xmlns="http://www.w3.org/2000/svg" role="img" aria-labelledby="title desc">
  <title id="title">AuthToolkit OG image template</title>
  <desc id="desc">Open Graph social image template with AuthToolkit branding.</desc>
  <rect width="1200" height="630" fill="#041B4D"/>
  <path d="M0 470C162 430 270 512 420 480C604 441 672 302 850 334C986 358 1048 452 1200 404V630H0V470Z" fill="#F0FAEA"/>
  <g stroke="#31517F" stroke-width="1.5" opacity="0.7">
    <path d="M742 92H880C914 92 914 144 948 144H1092"/>
    <path d="M776 218H910C944 218 944 270 978 270H1138"/>
    <path d="M692 344H840C876 344 876 394 912 394H1086"/>
  </g>
  <g fill="#08265F" stroke="#6E8AB2" stroke-width="1.5">
    <rect x="722" y="72" width="40" height="40" rx="12"/>
    <rect x="1072" y="124" width="40" height="40" rx="12"/>
    <rect x="756" y="198" width="40" height="40" rx="12"/>
    <rect x="1118" y="250" width="40" height="40" rx="12"/>
    <rect x="672" y="324" width="40" height="40" rx="12"/>
    <rect x="1066" y="374" width="40" height="40" rx="12"/>
  </g>
  <circle cx="948" cy="144" r="6" fill="#7ED321"/>
  <circle cx="978" cy="270" r="6" fill="#7ED321"/>
  <circle cx="912" cy="394" r="6" fill="#7ED321"/>
  <g transform="translate(80 72)">
    <path d="M28 4L50 12.5V30C50 44.5 41 55.6 28 60C15 55.6 6 44.5 6 30V12.5L28 4Z" fill="#FFFFFF"/>
    <path d="M28 18C22.5 18 18 22.5 18 28C18 32.2 20.7 35.9 24.5 37.2V45H31.5V37.2C35.3 35.9 38 32.2 38 28C38 22.5 33.5 18 28 18ZM28 25C29.7 25 31 26.3 31 28C31 29.7 29.7 31 28 31C26.3 31 25 29.7 25 28C25 26.3 26.3 25 28 25Z" fill="#7ED321"/>
    <text x="74" y="42" font-family="Inter, Poppins, Arial, sans-serif" font-size="34" font-weight="800" fill="#FFFFFF">Auth</text>
    <text x="160" y="42" font-family="Inter, Poppins, Arial, sans-serif" font-size="34" font-weight="800" fill="#7ED321">Toolkit</text>
  </g>
  <text x="80" y="260" font-family="Inter, Poppins, Arial, sans-serif" font-size="66" font-weight="800" fill="#FFFFFF">Authentication infrastructure</text>
  <text x="80" y="330" font-family="Inter, Poppins, Arial, sans-serif" font-size="66" font-weight="800" fill="#FFFFFF">for operational teams.</text>
  <text x="80" y="410" font-family="Inter, Poppins, Arial, sans-serif" font-size="28" font-weight="500" fill="#CFE5D6">Workflows, recovery, APIs, and release-ready systems.</text>
</svg>
