<svg width="1600" height="900" viewBox="0 0 1600 900" fill="none" xmlns="http://www.w3.org/2000/svg" role="img" aria-labelledby="title desc">
  <title id="title">AuthToolkit X post template</title>
  <desc id="desc">Square-friendly social post template for AuthToolkit announcements.</desc>
  <rect width="1600" height="900" fill="#FFFFFF"/>
  <rect x="72" y="72" width="1456" height="756" rx="48" fill="#F0FAEA"/>
  <path d="M918 72H1528V828H780C928 706 900 238 918 72Z" fill="#041B4D"/>
  <g stroke="#D4E5D9" stroke-width="2" stroke-linecap="round">
    <path d="M176 682H350C388 682 388 630 426 630H662"/>
    <path d="M220 540H410C448 540 448 488 486 488H704"/>
  </g>
  <g fill="#FFFFFF" stroke="#B9CCBF" stroke-width="2">
    <rect x="148" y="654" width="56" height="56" rx="16"/>
    <rect x="634" y="602" width="56" height="56" rx="16"/>
    <rect x="192" y="512" width="56" height="56" rx="16"/>
    <rect x="676" y="460" width="56" height="56" rx="16"/>
  </g>
  <circle cx="426" cy="630" r="8" fill="#7ED321"/>
  <circle cx="486" cy="488" r="8" fill="#7ED321"/>
  <g transform="translate(148 142)">
    <path d="M34 6L62 17V40C62 58.5 50.5 72.4 34 78C17.5 72.4 6 58.5 6 40V17L34 6Z" fill="#041B4D"/>
    <path d="M34 24C27.4 24 22 29.4 22 36C22 41.1 25.3 45.6 30 47.2V57H38V47.2C42.7 45.6 46 41.1 46 36C46 29.4 40.6 24 34 24ZM34 31.5C36.5 31.5 38.5 33.5 38.5 36C38.5 38.5 36.5 40.5 34 40.5C31.5 40.5 29.5 38.5 29.5 36C29.5 33.5 31.5 31.5 34 31.5Z" fill="#7ED321"/>
    <text x="92" y="52" font-family="Inter, Poppins, Arial, sans-serif" font-size="44" font-weight="800" fill="#041B4D">Auth</text>
    <text x="204" y="52" font-family="Inter, Poppins, Arial, sans-serif" font-size="44" font-weight="800" fill="#7ED321">Toolkit</text>
  </g>
  <text x="148" y="350" font-family="Inter, Poppins, Arial, sans-serif" font-size="74" font-weight="800" fill="#041B4D">Build reliable</text>
  <text x="148" y="434" font-family="Inter, Poppins, Arial, sans-serif" font-size="74" font-weight="800" fill="#041B4D">workflow infrastructure.</text>
  <text x="148" y="520" font-family="Inter, Poppins, Arial, sans-serif" font-size="30" font-weight="500" fill="#4F6475">Authentication, recovery, payment links, events, and APIs.</text>
  <g transform="translate(1030 276)">
    <rect width="328" height="256" rx="28" fill="#08265F" stroke="#31517F" stroke-width="2"/>
    <rect x="36" y="42" width="92" height="34" rx="17" fill="#7ED321"/>
    <rect x="36" y="104" width="212" height="16" rx="8" fill="#FFFFFF" opacity="0.85"/>
    <rect x="36" y="142" width="158" height="16" rx="8" fill="#CFE5D6" opacity="0.8"/>
    <path d="M64 202H140C168 202 168 174 196 174H270" stroke="#7ED321" stroke-width="3" stroke-linecap="round"/>
    <circle cx="196" cy="174" r="7" fill="#7ED321"/>
  </g>
</svg>
