<svg width="640" height="360" viewBox="0 0 640 360" fill="none" xmlns="http://www.w3.org/2000/svg" role="img" aria-labelledby="title desc">
  <title id="title">AuthToolkit node pattern</title>
  <desc id="desc">Repeating rounded nodes connected by thin infrastructure lines.</desc>
  <rect width="640" height="360" fill="#F7FBF8"/>
  <g stroke="#C9D9CE" stroke-width="1.5" stroke-linecap="round">
    <path d="M80 78H218C248 78 248 126 278 126H430"/>
    <path d="M130 220H270C300 220 300 174 330 174H520"/>
    <path d="M88 302H224C254 302 254 252 284 252H486"/>
  </g>
  <g fill="#FFFFFF" stroke="#B8CABF" stroke-width="1.5">
    <circle cx="80" cy="78" r="12"/>
    <circle cx="278" cy="126" r="12"/>
    <circle cx="430" cy="126" r="12"/>
    <circle cx="130" cy="220" r="12"/>
    <circle cx="330" cy="174" r="12"/>
    <circle cx="520" cy="174" r="12"/>
    <circle cx="88" cy="302" r="12"/>
    <circle cx="284" cy="252" r="12"/>
    <circle cx="486" cy="252" r="12"/>
  </g>
  <g fill="#7ED321">
    <circle cx="278" cy="126" r="4"/>
    <circle cx="330" cy="174" r="4"/>
    <circle cx="284" cy="252" r="4"/>
  </g>
</svg>
